<svg width="95" height="95" viewBox="0 0 95 95" fill="none" xmlns="http://www.w3.org/2000/svg">
<g clip-path="url(#clip0_42_19)">
<path d="M47.5 0C21.266 0 0 21.266 0 47.5C0 73.734 21.266 95 47.5 95C73.734 95 95 73.734 95 47.5C95 21.266 73.734 0 47.5 0ZM63.703 53.438H53.437V63.704C53.437 66.2313 51.3862 68.2821 48.8589 68.2821H46.1362C43.6089 68.2821 41.5581 66.2313 41.5581 63.704L41.562 53.438H31.296C28.7687 53.438 26.7179 51.3872 26.7179 48.8599V46.1372C26.7179 43.6099 28.7687 41.5591 31.296 41.5591L41.562 41.563V31.297C41.562 28.7697 43.6128 26.7189 46.1401 26.7189H48.8628C51.3901 26.7189 53.4409 28.7697 53.4409 31.297V41.563H63.7069C66.2342 41.563 68.285 43.6138 68.285 46.1411V48.8638C68.2811 51.3872 66.2303 53.438 63.703 53.438Z" fill="black"/>
</g>
<defs>
<clipPath id="clip0_42_19">
<rect width="95" height="95" fill="white"/>
</clipPath>
</defs>
</svg>
