<svg width="86" height="98" viewBox="0 0 86 98" fill="none" xmlns="http://www.w3.org/2000/svg">
<g clip-path="url(#clip0_42_10)">
<path d="M75.7215 20.811C70.1283 16.5193 63.1303 18.1313 59.4919 24.3074C58.4235 23.7864 57.3904 23.1525 56.4032 22.4121C50.3361 17.892 47.4591 10.6812 46.3083 6.79268C50.4945 7.66743 54.3958 10.078 57.5443 13.7354C58.0627 14.3357 58.7448 14.647 59.4412 14.6009C60.1375 14.5549 60.7913 14.1552 61.2591 13.4896C61.7269 12.8241 61.9705 11.9469 61.9366 11.0504C61.9028 10.1539 61.5941 9.31129 61.0783 8.70732C57.1994 4.18871 52.3923 1.20244 47.2307 0.105019C46.3043 -0.107026 45.3507 0.00329223 44.4685 0.424566C43.5864 0.845839 42.8076 1.56278 42.2128 2.50126C41.6114 3.42162 41.2151 4.53464 41.0661 5.72188C40.9171 6.90912 41.021 8.12614 41.3667 9.24344C42.8305 14.1013 46.4438 23.0873 54.2285 28.6315C55.2393 29.3421 56.282 29.975 57.351 30.5268C56.938 33.7818 57.3055 37.1215 58.4046 40.1008C59.5036 43.0802 61.282 45.5575 63.5027 47.2027C69.4936 51.7992 81.7209 53.1716 85.0973 45.8846C88.4735 38.5978 81.7209 25.4184 75.7215 20.811ZM75.0235 33.2498C75.0235 33.2498 72.2082 35.8819 69.545 33.4458C66.8914 31.0094 67.89 26.7243 67.89 26.7243C67.89 26.7243 70.7053 24.1039 73.359 26.5281C76.0222 28.9647 75.0235 33.2498 75.0235 33.2498Z" fill="black"/>
<path d="M80.1246 92.0306L77.4002 91.0339C76.9927 90.8848 76.6376 90.594 76.3857 90.2031C76.1338 89.8123 75.9981 89.3415 75.9981 88.8583V86.2799C76.0666 79.2929 76.9169 72.3436 78.5291 65.5969C79.266 62.2044 79.5205 58.7014 79.283 55.2189H79.1916C73.3621 55.2074 67.056 53.4005 62.7472 50.4958C58.3144 47.5627 55.0539 42.816 53.643 37.2419C53.464 36.5306 53.3185 35.809 53.207 35.0803C45.9987 34.52 31.3183 36.3728 20.9164 57.5518C20.8853 57.6064 20.8582 57.6637 20.8352 57.7232C18.9312 55.9138 16.5967 54.7772 14.1234 54.4554C11.65 54.1335 9.14743 54.6407 6.92811 55.9135C4.70878 57.1864 2.87108 59.1685 1.64447 61.6124C0.417871 64.0563 -0.143269 66.8536 0.0311309 69.6551C0.169389 71.803 0.734984 73.8881 1.68589 75.7556C2.63679 77.6231 3.94856 79.2248 5.52372 80.4418C7.09887 81.6588 8.89691 82.4598 10.7842 82.7852C12.6715 83.1107 14.5996 82.9522 16.4252 82.3216C16.5088 82.7647 16.6013 83.1981 16.7027 83.6219C18.7528 92.2139 25.8993 98 33.7876 98H55.89C56.7868 98 57.6529 97.631 58.3257 96.9621C58.9985 96.2933 59.432 95.3706 59.5447 94.367C59.6575 93.3635 59.4418 92.348 58.9381 91.511C58.4344 90.674 57.6774 90.073 56.8089 89.8206L43.4742 85.9466C43.4742 85.9466 43.6162 85.6607 43.819 85.1347C45.03 81.9352 45.5304 78.4506 45.2768 74.9834C45.0232 71.5163 44.0233 68.1713 42.3639 65.2389C42.0255 64.6112 41.9048 63.8646 42.0248 63.1426C42.1449 62.4206 42.4974 61.7741 43.0144 61.3274C43.2834 61.0931 43.5928 60.9246 43.9228 60.8329C44.2529 60.7411 44.5962 60.7281 44.931 60.7945C45.2657 60.861 45.5845 61.0056 45.8669 61.219C46.1493 61.4323 46.3891 61.7098 46.5709 62.0337C49.9701 67.9047 51.1848 75.0486 49.9527 81.9215L57.1711 84.014C58.3277 83.4868 59.3432 82.9892 60.2284 82.5299C60.8133 82.2267 61.4538 82.0851 62.0969 82.1169C62.74 82.1488 63.367 82.3531 63.9261 82.7129C64.4852 83.0727 64.9602 83.5776 65.3117 84.1859C65.6633 84.7941 65.8811 85.4881 65.9474 86.2103L66.5688 92.8797C66.6998 94.285 67.2874 95.5858 68.2183 96.5313C69.1492 97.4768 70.3576 98 71.6103 98H79.2878C79.9337 98 80.5584 97.74 81.0495 97.2668C81.5406 96.7935 81.8658 96.1381 81.9667 95.4185C82.0676 94.6989 81.9375 93.9623 81.5998 93.3412C81.2621 92.7201 80.739 92.2554 80.1246 92.0306Z" fill="black"/>
</g>
<defs>
<clipPath id="clip0_42_10">
<rect width="86" height="98" fill="white"/>
</clipPath>
</defs>
</svg>
