<svg width="100" height="100" viewBox="0 0 100 100" fill="none" xmlns="http://www.w3.org/2000/svg">
<path d="M80 38C80 37.2 79.69 36.45 79.12 35.88C77.95 34.71 76.05 34.71 74.88 35.88L53 57.76C52.23 58.53 51.14 58.97 50 58.97C48.86 58.97 47.77 58.53 47 57.76L25.12 35.88C24.54 35.3 23.77 35 23 35C22.23 35 21.46 35.29 20.88 35.88C20.3 36.47 20 37.2 20 38C20 38.8 20.31 39.55 20.88 40.12L42.76 62C44.69 63.93 47.27 65 50 65C52.73 65 55.31 63.93 57.24 62L79.12 40.12C79.69 39.55 80 38.8 80 38Z" fill="black"/>
</svg>
