<svg width="84" height="84" viewBox="0 0 84 84" fill="none" xmlns="http://www.w3.org/2000/svg">
<g clip-path="url(#clip0_42_15)">
<path d="M45.008 38.3359C46.3518 39.6836 46.7541 41.707 46.0236 43.4648C45.297 45.2226 43.5783 46.3671 41.6759 46.3671C39.7735 46.3671 38.0548 45.2226 37.3282 43.4648C36.5977 41.707 37.0001 39.6836 38.3438 38.3359C39.2188 37.4375 40.4219 36.9336 41.6758 36.9336C42.9297 36.9336 44.133 37.4375 45.008 38.3359ZM71.133 71.125C63.3205 78.9414 52.723 83.332 41.672 83.336C30.621 83.336 20.02 78.9454 12.207 71.133C4.3906 63.3166 0 52.719 0 41.668C0 30.617 4.3906 20.02 12.207 12.203C20.0195 4.3905 30.621 0 41.672 0C52.723 0.003907 63.32 4.3945 71.133 12.211C78.9455 20.0235 83.332 30.621 83.332 41.668C83.332 52.715 78.9453 63.313 71.133 71.125ZM57.258 52.3359L50.301 35.1289V35.125C49.9299 34.1719 49.1721 33.4141 48.219 33.043L31.008 26.086C29.6018 25.4883 27.9728 25.8047 26.8947 26.8868C25.8127 27.9649 25.4963 29.5938 26.0939 31.0001L33.0509 48.2071V48.211C33.422 49.1641 34.1798 49.9219 35.1329 50.293L52.3399 57.25H52.3438C53.75 57.8476 55.379 57.5312 56.4571 56.4492C57.5391 55.3711 57.8556 53.7422 57.258 52.3359Z" fill="black"/>
</g>
<defs>
<clipPath id="clip0_42_15">
<rect width="83.332" height="83.336" fill="white"/>
</clipPath>
</defs>
</svg>
