<svg id="a" xmlns="http://www.w3.org/2000/svg" viewBox="0 0 1754.48 910.83"><defs><style>.b{stroke-width:14px;}.b,.c{stroke:#000;stroke-miterlimit:10;}</style></defs><path d="M406.77,3c1.93,0,1.93-3,0-3s-1.93,3,0,3h0Z"/><path d="M910.93,790.25h-5.05c-2.45-1.35-4.97-2.58-7.33-4.07-12.93-8.13-23.26-19.19-33.18-30.54-5.31-6.07-9.68-13.03-13.92-19.92-4.25-6.89-8.32-13.98-11.55-21.38-4.53-10.36-8.58-20.97-12.16-31.7-5.25-15.73-7.89-32.22-8.94-48.58-1.1-17.22-2.21-34.73,1.38-51.93,2.42-11.58,3.66-23.52,10.06-33.95,1.23-2,.6-3.76-1.76-4.7-1.95-.78-3.82-1.76-5.79-2.48-7.87-2.9-14.86-7.57-20.9-13.04-7.81-7.08-13.81-15.81-15.71-26.68-.29-1.64-.92-3.21-1.39-4.82v-6.73c.26-.79,.68-1.57,.74-2.38,1.06-14.73,8.32-26.77,17.88-37.11,9.11-9.85,19.7-18.14,32.35-23.58,13.05-5.62,26.25-10.72,40.35-12.64,10.1-1.37,20.33-1.91,30.51-2.51,3.32-.2,5.51-1.09,6.91-4.28,1-2.28,2.5-4.4,4.09-6.34,8.76-10.73,17.3-21.58,27.24-31.36,12.65-12.44,25.9-23.86,41.52-32.43,11.51-6.32,23.13-11.1,36.8-8.25,7.4,1.54,16.08,7.71,13.61,18.14-.13,.54-.19,1.11-.26,1.66-1.09,8.98-4.08,12.14-12.92,13.01-11.53,1.12-22.77,3.75-33.43,7.99-18.99,7.55-37.68,15.84-54.06,28.44-3.77,2.9-7.61,5.7-11.24,8.77-1.87,1.58-3.2,3.66-1.46,6.26,1.64,2.44,3.29,2.74,6.56,1.09,.74-.37,1.42-.87,2.11-1.35,6.89-4.77,13.4-10.27,20.76-14.15,11.26-5.93,23.17-10.61,34.68-16.08,9.58-4.55,19.73-6.88,30.08-8.57,5.52-.9,11.1-1.45,16.62-2.35,6.73-1.1,13.37-1.21,19.96,.86,1.46,.46,3.02,.95,4.51,.88,6.9-.33,13.29,1.9,19.65,3.97,3.35,1.09,6.95,2.76,9.31,5.23,6.12,6.4,5.85,14,2.77,21.89-2.56,6.56-7.44,11.48-11.46,17.01-1.96,2.69-4.5,4.96-6.87,7.32-1.78,1.78-4.17,3.11-5.48,5.16-3.97,6.16-10.21,9.68-15.98,13.37-10.01,6.4-20.66,11.81-31.12,17.48-3.19,1.73-6.57,3.21-10.01,4.37-11.39,3.86-22.83,7.6-34.29,11.23-3.18,1.01-5.3,2.93-6.89,5.74-3.38,5.99-7.54,11.23-12.71,15.96-14.22,13.02-31.06,20.81-49.22,26.3-1.6,.48-3.19,1.1-4.64,1.92-2.77,1.55-2.43,4.39-1.94,6.73,.47,2.25,2.64,3.29,4.96,2.96,4.71-.68,9.52-1.1,14.05-2.43,15.85-4.67,30.22-12.61,44.3-21.03,14.72-8.81,30.35-14.22,47.63-14.29,3.93-.01,7.88-.29,11.78,.07,4.98,.46,10.06,.92,14.82,2.31,7.23,2.11,14.33,4.75,21.28,7.68,3.95,1.66,7.41,4.43,11.19,6.54,9.28,5.19,17.52,11.55,23.62,20.42,.55,.8,1.27,1.5,2,2.15,7.33,6.45,11.85,15.05,15.68,23.58,3.79,8.45,5.41,17.93,7.53,27.06,.69,2.96,1.8,4.1,4.67,4.84,9.35,2.43,17.64,6.25,23.61,14.76,6.97,9.94,9.93,20.05,6.57,31.96-3.06,10.87-9.65,18.64-19.28,24.21-7.26,4.21-15.22,5.56-23.37,6.08-2.96,.19-4.79,.74-5.99,3.91-2.85,7.57-6.19,14.96-9.41,22.39-7.13,16.47-15.48,32.22-25.55,47.15-8.36,12.39-17.9,23.64-28.54,34.02-3.79,3.69-8.4,6.09-13.47,7.49-5.3,1.47-10.18-.78-12.62-5.65-2.16-4.31-3.52-8.78-3.35-13.73,.21-6.03-.03-12.07,.09-18.1,.37-19.31-3.99-37.67-10.45-55.74-2.95-8.27-9.22-13.91-14.29-20.52-.88-1.15-2.41-2-3.82-2.53-3.93-1.49-7.85-3.35-11.94-3.95-7.96-1.17-15.83,.07-22.43,4.91-9.95,7.3-15.79,17.81-19.8,29.09-2.55,7.17-3.65,14.9-4.97,22.46-2.78,15.86-1.76,31.84-.79,47.77,.37,6.03-1.81,10.94-7.14,14-1.82,1.05-3.59,2.17-5.38,3.26Zm37.37-341.16c9.17-.72,17.58-3.5,25.77-6.64,11.64-4.46,22.81-10.05,32.99-17.29,3.69-2.62,6.95-6.13,9.62-9.81,3.49-4.79,1.58-8.61-4.34-8.76-5.26-.13-10.64,.28-15.81,1.27-5.19,.99-10.26,2.78-15.26,4.56-11.77,4.16-23.19,9.12-32.94,17.12-3.63,2.98-7.13,6.29-10.01,9.97-2.24,2.86-1.46,5.25,1.79,6.93,2.51,1.3,5.44,1.8,8.18,2.65Zm140.2,130.78l.7-.23c-1.28-3.95-1.83-8.35-3.97-11.75-4.81-7.62-8.47-15.95-15.56-22.2-7.18-6.32-14.28-12.59-23.09-16.41-5.74-2.5-11.7-4.68-17.75-6.22-5.91-1.51-12.05-2.2-18.12-2.88-1.98-.22-4.18,.45-6.11,1.16-3.45,1.29-4.71,3.49-4.37,6.79,.33,3.23,2.08,5.25,5.5,6.04,3.13,.73,6.35,1.13,9.46,1.96,7.83,2.08,15.83,3.78,23.38,6.64,9.61,3.64,16.11,11.78,23.44,18.54,2.88,2.66,4.69,6.57,6.69,10.08,2.42,4.24,4.43,8.72,6.8,13,1.89,3.41,5.12,4.59,9,3.64,2.9-.71,3.95-2.51,4-6.91,0-.42,0-.84,0-1.26Zm-218.84-110.81c.31-4.58-6.19-11.83-13.66-11.71-7.52,.12-12.46,4.94-12.26,12,.19,6.71,5.92,12.05,12.72,11.86,6.82-.19,13.26-6.12,13.2-12.16Z"/><path class="c" d="M998.29,378.83c10.02-3.92,30.59-10.37,55.98-6.75,11.96,1.71,21.72,5.18,28.89,8.43"/><path class="c" d="M1016.69,361.99c16.57-.73,27.87-8.03,28.54-15.63,.49-5.48-4.62-10.23-6.32-11.81-9.07-8.44-22.32-6.58-27.09-5.9-5.95,.84-10.6,2.76-13.54,4.22"/><g><path class="b" d="M40.49,711.95c-3.23,0-5.95-1.25-8.15-3.74s-3.31-5.57-3.31-9.24v-168.98c0-3.83,1.1-6.95,3.31-9.36,2.2-2.41,4.92-3.62,8.15-3.62s6.13,1.21,8.26,3.62c2.13,2.41,3.19,5.53,3.19,9.36v71.63h102.24v-71.63c0-3.83,1.1-6.95,3.31-9.36,2.2-2.41,4.92-3.62,8.15-3.62s6.09,1.21,8.15,3.62c2.06,2.41,3.08,5.53,3.08,9.36v168.98c0,3.66-1.03,6.74-3.08,9.24-2.06,2.5-4.78,3.74-8.15,3.74s-5.95-1.25-8.15-3.74-3.31-5.57-3.31-9.24v-74.38H51.95v74.38c0,3.66-1.07,6.74-3.19,9.24-2.13,2.5-4.89,3.74-8.26,3.74Z"/><path class="b" d="M273.4,712.95c-11.9,0-22.4-2.95-31.51-8.86-9.11-5.9-16.27-14.06-21.48-24.46-5.22-10.4-7.82-22.34-7.82-35.82s2.61-25.67,7.82-36.07c5.21-10.4,12.37-18.55,21.48-24.46,9.11-5.9,19.61-8.86,31.51-8.86s22.18,2.96,31.29,8.86c9.11,5.91,16.27,14.06,21.48,24.46,5.21,10.4,7.82,22.42,7.82,36.07s-2.57,25.42-7.71,35.82c-5.14,10.4-12.27,18.56-21.37,24.46-9.11,5.91-19.61,8.86-31.51,8.86Zm0-22.46c7.64,0,14.4-2,20.27-5.99,5.87-3.99,10.47-9.48,13.77-16.47,3.31-6.99,4.96-15.06,4.96-24.21s-1.65-17.26-4.96-24.34c-3.31-7.07-7.9-12.61-13.77-16.6-5.88-3.99-12.64-5.99-20.27-5.99s-14.4,2-20.27,5.99c-5.88,3.99-10.5,9.53-13.88,16.6-3.38,7.07-5.07,15.19-5.07,24.34s1.69,17.22,5.07,24.21c3.38,6.99,8,12.48,13.88,16.47,5.87,3.99,12.63,5.99,20.27,5.99Z"/><path class="b" d="M428.08,712.95c-11.46,0-21.74-3.03-30.85-9.11-9.11-6.07-16.31-14.35-21.59-24.83-5.29-10.48-8.01-22.3-8.15-35.44v-113.82c0-3.83,1.06-6.9,3.19-9.24,2.13-2.33,4.81-3.49,8.04-3.49s6.09,1.17,8.15,3.49c2.06,2.33,3.08,5.41,3.08,9.24v67.39c5.14-6.99,11.35-12.52,18.62-16.6,7.27-4.08,15.24-6.12,23.91-6.12,10.72,0,20.34,3.04,28.87,9.11,8.52,6.08,15.24,14.31,20.16,24.71,4.92,10.4,7.38,22.18,7.38,35.32s-2.68,24.96-8.04,35.44c-5.36,10.48-12.6,18.76-21.7,24.83-9.11,6.08-19.47,9.11-31.07,9.11Zm0-22.46c7.49,0,14.17-2.04,20.05-6.12,5.87-4.08,10.54-9.69,13.99-16.85,3.45-7.15,5.18-15.14,5.18-23.96s-1.73-16.97-5.18-23.96c-3.45-6.99-8.12-12.52-13.99-16.6-5.88-4.08-12.56-6.11-20.05-6.11s-13.99,2.04-19.94,6.11c-5.95,4.08-10.61,9.61-13.99,16.6-3.38,6.99-5.07,14.98-5.07,23.96s1.69,16.81,5.07,23.96c3.38,7.16,8.04,12.77,13.99,16.85,5.95,4.08,12.59,6.12,19.94,6.12Z"/><path class="b" d="M582.99,712.95c-11.46,0-21.74-3.03-30.85-9.11-9.11-6.07-16.31-14.35-21.59-24.83-5.29-10.48-8.01-22.3-8.15-35.44v-113.82c0-3.83,1.06-6.9,3.19-9.24,2.13-2.33,4.81-3.49,8.04-3.49s6.09,1.17,8.15,3.49c2.06,2.33,3.08,5.41,3.08,9.24v67.39c5.14-6.99,11.35-12.52,18.62-16.6,7.27-4.08,15.24-6.12,23.91-6.12,10.72,0,20.34,3.04,28.87,9.11,8.52,6.08,15.24,14.31,20.16,24.71,4.92,10.4,7.38,22.18,7.38,35.32s-2.68,24.96-8.04,35.44c-5.36,10.48-12.6,18.76-21.7,24.83-9.11,6.08-19.47,9.11-31.07,9.11Zm0-22.46c7.49,0,14.17-2.04,20.05-6.12,5.87-4.08,10.54-9.69,13.99-16.85,3.45-7.15,5.18-15.14,5.18-23.96s-1.73-16.97-5.18-23.96c-3.45-6.99-8.12-12.52-13.99-16.6-5.88-4.08-12.56-6.11-20.05-6.11s-13.99,2.04-19.94,6.11c-5.95,4.08-10.61,9.61-13.99,16.6-3.38,6.99-5.07,14.98-5.07,23.96s1.69,16.81,5.07,23.96c3.38,7.16,8.04,12.77,13.99,16.85,5.95,4.08,12.59,6.12,19.94,6.12Z"/><path class="b" d="M724.89,706.46c-2.79,1.33-5.4,1.46-7.82,.37-2.42-1.08-4.37-3.2-5.84-6.36l-50.46-108.58c-1.47-3.16-1.65-6.2-.55-9.11,1.1-2.91,3.05-5.03,5.84-6.36,2.79-1.33,5.43-1.45,7.93-.37,2.5,1.08,4.41,3.21,5.73,6.36l48.26,108.58c1.47,3.16,2.02,6.2,1.65,9.11-.37,2.91-1.95,5.04-4.74,6.37Zm-26,65.4c-1.47,0-3.23-.5-5.29-1.5-6.47-3.33-8.23-8.57-5.29-15.72l67.21-171.97c2.94-6.99,7.56-8.99,13.88-5.99,6.61,3.16,8.45,8.4,5.51,15.72l-67.43,171.72c-1.76,5.16-4.63,7.74-8.59,7.74Z"/><path class="b" d="M1205.03,711.95c-3.23,0-5.95-1.25-8.15-3.74-2.2-2.5-3.3-5.57-3.3-9.24v-168.98c0-3.83,1.1-6.95,3.3-9.36,2.2-2.41,4.92-3.62,8.15-3.62s6.13,1.21,8.26,3.62c2.13,2.41,3.2,5.53,3.2,9.36v71.63h102.24v-71.63c0-3.83,1.1-6.95,3.31-9.36,2.2-2.41,4.92-3.62,8.15-3.62s6.09,1.21,8.15,3.62c2.06,2.41,3.08,5.53,3.08,9.36v168.98c0,3.66-1.03,6.74-3.08,9.24-2.06,2.5-4.78,3.74-8.15,3.74s-5.95-1.25-8.15-3.74-3.31-5.57-3.31-9.24v-74.38h-102.24v74.38c0,3.66-1.07,6.74-3.2,9.24-2.13,2.5-4.88,3.74-8.26,3.74Z"/><path class="b" d="M1437.94,712.95c-11.9,0-22.4-2.95-31.51-8.86-9.11-5.9-16.27-14.06-21.48-24.46-5.22-10.4-7.82-22.34-7.82-35.82s2.61-25.67,7.82-36.07c5.21-10.4,12.37-18.55,21.48-24.46,9.11-5.9,19.61-8.86,31.51-8.86s22.18,2.96,31.29,8.86c9.11,5.91,16.27,14.06,21.48,24.46,5.21,10.4,7.82,22.42,7.82,36.07s-2.57,25.42-7.71,35.82c-5.14,10.4-12.27,18.56-21.37,24.46-9.11,5.91-19.61,8.86-31.51,8.86Zm0-22.46c7.64,0,14.39-2,20.27-5.99,5.87-3.99,10.47-9.48,13.77-16.47,3.3-6.99,4.96-15.06,4.96-24.21s-1.65-17.26-4.96-24.34c-3.31-7.07-7.9-12.61-13.77-16.6-5.88-3.99-12.64-5.99-20.27-5.99s-14.4,2-20.27,5.99c-5.88,3.99-10.5,9.53-13.88,16.6-3.38,7.07-5.07,15.19-5.07,24.34s1.69,17.22,5.07,24.21c3.38,6.99,8,12.48,13.88,16.47,5.87,3.99,12.63,5.99,20.27,5.99Z"/><path class="b" d="M1543.26,770.35c-3.23,0-5.92-1.21-8.04-3.62-2.13-2.41-3.2-5.45-3.2-9.11v-113.82c.15-13.14,2.87-24.96,8.15-35.44,5.29-10.48,12.48-18.76,21.59-24.83,9.11-6.07,19.39-9.11,30.85-9.11s21.96,3.04,31.07,9.11c9.11,6.08,16.34,14.35,21.7,24.83,5.36,10.48,8.04,22.3,8.04,35.44s-2.46,24.92-7.38,35.32c-4.92,10.4-11.64,18.64-20.16,24.71-8.52,6.08-18.14,9.11-28.87,9.11-8.67,0-16.64-2.04-23.91-6.12-7.27-4.08-13.48-9.61-18.62-16.6v67.39c0,3.66-1.03,6.7-3.08,9.11-2.06,2.41-4.78,3.62-8.15,3.62Zm49.36-79.87c7.49,0,14.17-2.04,20.05-6.12,5.87-4.08,10.54-9.65,13.99-16.72,3.45-7.07,5.18-15.02,5.18-23.84s-1.73-17.01-5.18-24.09c-3.45-7.07-8.12-12.64-13.99-16.72-5.88-4.08-12.56-6.11-20.05-6.11s-13.99,2.04-19.94,6.11c-5.95,4.08-10.62,9.65-13.99,16.72-3.38,7.08-5.07,15.1-5.07,24.09s1.69,16.77,5.07,23.84c3.38,7.07,8.04,12.65,13.99,16.72,5.95,4.08,12.59,6.12,19.94,6.12Z"/></g><path class="c" d="M1090.9,388.77c.25,1.04,1.04,4.48,.93,8.79-1.37,51.51-128.07,92.52-132.78,83.74-2.16-4.03,19.06-22.88,131.85-92.53Z"/><path class="c" d="M908.16,447.52c12.35-12.35,31.05-27.93,56.91-38.86,61.97-26.21,122.77-4.79,126.51-16.21,1.87-5.71-7.34-14.59-23.75-18.79-13.32-3.41-35.04-1.71-49.43,.28-25.98,3.58-31.1,7.79-47.32,14.83-6.34,2.75-12.64,5.74-19.89,10.18-8.1,4.95-25.5,16.68-24.06,19.89,1.11,2.47,13.8,.8,63.38-16.66"/></svg>