<svg width="68" height="69" viewBox="0 0 68 69" fill="none" xmlns="http://www.w3.org/2000/svg">
<g clip-path="url(#clip0_42_6)">
<path d="M7.50012 68.0488H24.0001C24.8009 68.0488 25.5001 67.3495 25.5001 66.5488V47.5488C25.5001 45.0488 27.5001 43.0488 30.0001 43.0488H38.0001C40.5001 43.0488 42.5001 45.0488 42.5001 47.5488V66.5488C42.5001 67.3495 43.1993 68.0488 44.0001 68.0488H60.5001C64.6017 68.0488 68.0001 64.6504 68.0001 60.5488V26.0488C68.0001 23.4472 66.6017 20.9472 64.3009 19.6504L37.8989 1.15036C37.8989 1.15036 37.7974 1.15036 37.7974 1.0488C35.4966 -0.3496 32.5982 -0.3496 30.1958 1.0488L30.0942 1.15036L3.6992 19.6504C1.3984 20.9473 0 23.4473 0 26.0488V60.5488C0 64.6504 3.39852 68.0488 7.50012 68.0488Z" fill="black"/>
</g>
<defs>
<clipPath id="clip0_42_6">
<rect width="68.0001" height="68.0488" fill="white"/>
</clipPath>
</defs>
</svg>
