<svg width="220" height="763" viewBox="0 0 220 763" fill="none" xmlns="http://www.w3.org/2000/svg">
<g clip-path="url(#clip0_29_6)">
<path d="M109.51 0C139.65 0 167.04 12.29 186.89 32.13C206.75 51.91 219.02 79.29 219.02 109.52C219.02 139.75 206.75 167.13 186.93 186.95C164.59 207.56 140.39 219.04 109.51 219.04C79.37 219.04 51.98 206.75 32.13 186.91C12.27 167.13 0 139.75 0 109.52C0 79.29 12.27 51.91 32.09 32.09C54.43 11.48 78.63 0 109.51 0ZM109.51 542.98C139.65 542.98 167.04 555.27 186.89 575.11C206.75 594.89 219.02 622.27 219.02 652.5C219.02 682.73 206.75 710.11 186.93 729.93C164.59 750.54 140.39 762.02 109.51 762.02C79.37 762.02 51.98 749.73 32.13 729.89C12.27 710.11 0 682.73 0 652.5C0 622.27 12.27 594.89 32.09 575.07C54.43 554.46 78.63 542.98 109.51 542.98ZM157.01 604.95C144.92 592.81 128.12 585.32 109.51 585.32C91.37 585.32 74.94 592.44 62.93 604.01C49.69 618.11 42.34 632.76 42.34 652.5C42.34 671.06 49.87 687.87 62.01 700.01C74.1 712.19 90.9 719.68 109.51 719.68C127.65 719.68 144.08 712.56 156.09 700.99C169.33 686.89 176.68 672.24 176.68 652.5C176.68 633.94 169.15 617.13 157.01 604.95ZM109.51 271.49C139.65 271.49 167.04 283.78 186.89 303.62C206.75 323.4 219.02 350.78 219.02 381.01C219.02 409.82 206.97 439.96 185.64 459.63C165.9 478.74 139.02 490.53 109.51 490.53C79.37 490.53 51.98 478.24 32.13 458.4C12.27 438.62 0 411.24 0 381.01C0 350.78 12.27 323.4 32.09 303.58C54.43 282.97 78.63 271.49 109.51 271.49ZM157.01 333.46C144.92 321.32 128.12 313.83 109.51 313.83C91.37 313.83 74.94 320.95 62.93 332.52C49.69 346.62 42.34 361.27 42.34 381.01C42.34 399.57 49.87 416.38 62.01 428.52C74.1 440.7 90.9 448.19 109.51 448.19C127.65 448.19 144.08 441.07 156.09 429.5C169.33 415.4 176.68 400.75 176.68 381.01C176.68 362.45 169.15 345.64 157.01 333.46ZM157.01 61.97C144.92 49.83 128.12 42.34 109.51 42.34C91.37 42.34 74.94 49.46 62.93 61.03C49.69 75.13 42.34 89.78 42.34 109.52C42.34 128.08 49.87 144.89 62.01 157.03C74.1 169.21 90.9 176.7 109.51 176.7C127.65 176.7 144.08 169.58 156.09 158.01C169.33 143.91 176.68 129.26 176.68 109.52C176.68 90.96 169.15 74.15 157.01 61.97Z" fill="black"/>
</g>
<defs>
<clipPath id="clip0_29_6">
<rect width="219.02" height="762.02" fill="white"/>
</clipPath>
</defs>
</svg>
