<svg width="66" height="63" viewBox="0 0 66 63" fill="none" xmlns="http://www.w3.org/2000/svg">
<g clip-path="url(#clip0_26_2)">
<path d="M40.1573 31.2663L64.1643 8.63933C66.1733 6.74533 66.2673 3.58033 64.3733 1.57133C62.4783 -0.436669 59.3153 -0.530671 57.3053 1.36233L32.8673 24.3953L8.42933 1.36133C6.41933 -0.53267 3.25633 -0.438671 1.36133 1.57033C-0.53267 3.58033 -0.438671 6.74433 1.57033 8.63833L25.5773 31.2653L1.57033 53.8943C-0.438671 55.7893 -0.53267 58.9533 1.36133 60.9623C2.34533 62.0063 3.67133 62.5323 5.00133 62.5323C6.23133 62.5323 7.46433 62.0813 8.43033 61.1713L32.8673 38.1383L57.3053 61.1713C58.2713 62.0813 59.5033 62.5323 60.7343 62.5323C62.0633 62.5323 63.3903 62.0053 64.3743 60.9623C66.2683 58.9523 66.1743 55.7883 64.1653 53.8943L40.1573 31.2663Z" fill="black"/>
</g>
<defs>
<clipPath id="clip0_26_2">
<rect width="65.7357" height="62.5323" fill="white"/>
</clipPath>
</defs>
</svg>
