<svg width="19" height="75" viewBox="0 0 19 75" fill="none" xmlns="http://www.w3.org/2000/svg">
<g clip-path="url(#clip0_63_16)">
<path d="M18.75 65.625C18.75 70.8008 14.5508 75 9.375 75C4.1992 75 0 70.8008 0 65.625C0 60.4492 4.1992 56.25 9.375 56.25C14.5508 56.25 18.75 60.4492 18.75 65.625ZM9.375 18.75C14.5508 18.75 18.75 14.5508 18.75 9.375C18.75 4.1992 14.5508 0 9.375 0C4.1992 0 0 4.1992 0 9.375C0 14.5508 4.1992 18.75 9.375 18.75ZM9.375 28.125C4.1992 28.125 0 32.3242 0 37.5C0 42.6758 4.1992 46.875 9.375 46.875C14.5508 46.875 18.75 42.6758 18.75 37.5C18.75 32.3242 14.5508 28.125 9.375 28.125Z" fill="black"/>
</g>
<defs>
<clipPath id="clip0_63_16">
<rect width="18.75" height="75" fill="white"/>
</clipPath>
</defs>
</svg>
