<svg width="61" height="60" viewBox="0 0 61 60" fill="none" xmlns="http://www.w3.org/2000/svg">
<g clip-path="url(#clip0_41_2)">
<path d="M25.9781 6.13655e-05C21.9544 0.00188723 17.9883 0.955854 14.4039 2.78398C10.8195 4.61211 7.71861 7.26251 5.35466 10.5185C2.9907 13.7746 1.43082 17.5438 0.802497 21.5181C0.174176 25.4924 0.495259 29.559 1.7395 33.3854C2.98374 37.2119 5.11582 40.6896 7.96146 43.5343C10.8071 46.379 14.2855 48.5099 18.1124 49.7529C21.9393 50.9958 26.006 51.3155 29.9801 50.6859C33.9542 50.0562 37.7229 48.4951 40.9781 46.1301L53.6781 58.8301C54.4287 59.5806 55.4466 60.0023 56.5081 60.0023C57.5696 60.0023 58.5875 59.5806 59.3381 58.8301C60.0887 58.0795 60.5103 57.0615 60.5103 56.0001C60.5103 54.9386 60.0887 53.9206 59.3381 53.1701L46.6381 40.4701C49.4062 36.6652 51.0667 32.1682 51.4356 27.4775C51.8045 22.7867 50.8673 18.0855 48.7279 13.8947C46.5885 9.70401 43.3305 6.1875 39.315 3.73499C35.2995 1.28247 30.6833 -0.0102635 25.9781 6.13655e-05ZM25.9781 43.0001C22.5169 43.0001 19.1335 41.9737 16.2556 40.0508C13.3778 38.1279 11.1347 35.3947 9.81021 32.197C8.48567 28.9993 8.13912 25.4806 8.81436 22.086C9.4896 18.6913 11.1563 15.5731 13.6037 13.1257C16.0511 10.6783 19.1694 9.01156 22.564 8.33632C25.9587 7.66108 29.4774 8.00763 32.6751 9.33217C35.8728 10.6567 38.6059 12.8997 40.5288 15.7776C42.4517 18.6554 43.4781 22.0389 43.4781 25.5001C43.4728 30.1397 41.6274 34.5878 38.3466 37.8686C35.0659 41.1493 30.6178 42.9948 25.9781 43.0001Z" fill="black"/>
</g>
<defs>
<clipPath id="clip0_41_2">
<rect width="61" height="60.0023" fill="white"/>
</clipPath>
</defs>
</svg>
