<svg width="102" height="91" viewBox="0 0 102 91" fill="none" xmlns="http://www.w3.org/2000/svg">
<path fill-rule="evenodd" clip-rule="evenodd" d="M51.0003 26.6022C56.5079 26.6022 61.7891 28.5914 65.6832 32.1385C69.5812 35.6818 71.7671 40.4877 71.7671 45.5C71.7671 50.5122 69.5812 55.3177 65.6832 58.8614C61.7895 62.4085 56.5083 64.3977 51.0003 64.3977C45.4923 64.3977 40.2116 62.4085 36.3174 58.8614C32.4195 55.3181 30.2336 50.5122 30.2336 45.5C30.2336 40.4877 32.4195 35.6822 36.3174 32.1385C40.2111 28.5914 45.4923 26.6022 51.0003 26.6022ZM32.2658 76.721C33.6576 75.6487 35.5875 75.3689 37.2738 75.9984C38.9602 76.6239 40.1215 78.0536 40.288 79.7048L40.954 86.2785C41.1803 88.6291 43.2168 90.5056 45.7955 90.7348C49.3861 91.0884 53.0066 91.0884 56.5971 90.7348C59.1758 90.4862 61.1994 88.6019 61.4044 86.2475L62.0149 79.6622V79.6661C62.1643 78.0109 63.3128 76.5696 64.995 75.9286C66.6772 75.2875 68.6111 75.5556 70.0072 76.6201L75.5831 80.8355L75.5788 80.8394C77.5811 82.3468 80.4758 82.3468 82.4781 80.8394C85.2959 78.7725 87.8619 76.4414 90.1289 73.8772C91.7598 72.0395 91.7256 69.4054 90.0392 67.6104L85.36 62.5675H85.3643C84.186 61.301 83.8785 59.5448 84.5702 58.0103C85.2576 56.4756 86.8287 55.4188 88.6433 55.2674L95.8116 54.6419C98.3946 54.4359 100.457 52.5827 100.709 50.2361C101.097 46.9686 101.097 43.674 100.709 40.4067C100.435 38.06 98.3647 36.2185 95.7775 36.032L88.5408 35.4764H88.5451C86.7263 35.3405 85.1424 34.2954 84.438 32.7646C83.7335 31.2338 84.0281 29.4738 85.1979 28.2034L89.8302 23.1294L89.8345 23.1333C91.491 21.3112 91.491 18.677 89.8345 16.8549C87.5632 14.3101 84.9973 11.9907 82.1837 9.94322C80.1643 8.45908 77.2697 8.49021 75.2972 10.0209L69.7555 14.279C68.3637 15.3513 66.4339 15.6311 64.7476 15.0016C63.0611 14.3761 61.8998 12.9464 61.7334 11.2952L61.046 4.72146C60.8197 2.37093 58.7832 0.494417 56.2045 0.265162C52.6139 -0.0883875 48.9934 -0.0883875 45.4029 0.265162C42.8242 0.513812 40.8006 2.39808 40.5956 4.75249L39.9851 11.3378V11.3339C39.8357 12.9891 38.6872 14.4304 37.005 15.0714C35.3228 15.7125 33.3888 15.4444 31.9928 14.3799L26.4169 10.1645L26.4212 10.1606C24.4189 8.65319 21.5242 8.65319 19.5218 10.1606C16.7254 12.2275 14.1766 14.5625 11.9266 17.1228C10.2957 18.9605 10.3299 21.5946 12.012 23.3896L16.6912 28.4325C17.8695 29.699 18.177 31.4552 17.4853 32.9897C16.7979 34.5244 15.2268 35.5811 13.4123 35.7326L6.18842 36.3581C3.60541 36.564 1.54332 38.4173 1.29139 40.7639C0.902871 44.0314 0.902871 47.326 1.29139 50.5933C1.56463 52.94 3.63525 54.7815 6.22252 54.968L13.4592 55.5235H13.4549C15.2737 55.6595 16.8576 56.7046 17.562 58.2354C18.2665 59.7662 17.9719 61.5261 16.8021 62.7965L12.1698 67.8706L12.1655 67.8667C10.509 69.6888 10.509 72.323 12.1655 74.1451C14.4368 76.7093 16.9985 79.0443 19.8163 81.1073C21.8357 82.5914 24.7303 82.5603 26.7028 81.0257L32.2658 76.721Z" fill="black"/>
</svg>
